<?xml version="1.0" standalone="yes"?>
<svg xmlns="http://www.w3.org/2000/svg" width="100" height="100">
<path style="fill:#01ACAB; stroke:none;" d="M43 6L44 7L43 6z"/>
<path style="fill:#01ACAB; stroke:none;" d="M49 94C57.0441 88.318 62.7326 79.2325 67.9468 71C73.1488 62.7865 77.3229 54.3723 79.9606 45C90.4961 7.56644 33.3037 -9.62254 20.3873 27C18.8185 31.4482 18.6836 36.3498 19.2894 41C20.3979 49.5096 24.2026 57.6182 28.4275 65C34.3381 75.3271 41.5474 84.7544 49 94z"/>
<path style="fill:#01ACAB; stroke:none;" d="M40 7L41 8L40 7z"/>
<path style="fill:#01ACAB; stroke:none;" d="M62 8L63 9L62 8z"/>
<path style="fill:#01ACAB; stroke:none;" d="M35 9L36 10L35 9z"/>
<path style="fill:#01ACAB; stroke:none;" d="M64 9L65 10L64 9z"/>
<path style="fill:#01ACAB; stroke:none;" d="M33 10L34 11L33 10z"/>
<path style="fill:#01ACAB; stroke:none;" d="M66 10L67 11L66 10M30 12L31 13L30 12z"/>
<path style="fill:#01ACAB; stroke:none;" d="M28 14L29 15L28 14z"/>
<path style="fill:#01ACAB; stroke:none;" d="M71 14L72 15L71 14z"/>
<path style="fill:#01ACAB; stroke:none;" d="M26 16L27 17L26 16M75 19L76 20L75 19z"/>
<path style="fill:#01ACAB; stroke:none;" d="M23 20L24 21L23 20z"/>
<path style="fill:#01ACAB; stroke:none;" d="M22 22L23 23L22 22z"/>
<path style="fill:#01ACAB; stroke:none;" d="M77 22L78 23L77 22z"/>
<path style="fill:#01ACAB; stroke:none;" d="M78 24L79 25L78 24z"/>
<path style="fill:#010101; stroke:none;" d="M45.044 28.0278C33.6922 34.0817 43.3715 51.9951 54.956 45.821C66.2856 39.7828 56.582 21.8745 45.044 28.0278z"/>
<path style="fill:#01ACAB; stroke:none;" d="M79 27L80 28L79 27M43 28L44 29L43 28M42 29L43 30L42 29M41 30L42 31L41 30z"/>
<path style="fill:#01ACAB; stroke:none;" d="M80 31L81 32L80 31z"/>
<path style="fill:#01ACAB; stroke:none;" d="M40 32L41 33L40 32M59 32L60 33L59 32M39 37L40 38L39 37M60.3333 37.6667L60.6667 38.3333L60.3333 37.6667M59 41L60 42L59 41M19 42L20 43L19 42M57 44L58 45L57 44M45 46L46 47L45 46M79 46L80 47L79 46M78 49L79 50L78 49z"/>
<path style="fill:#01ACAB; stroke:none;" d="M22 52L23 53L22 52z"/>
<path style="fill:#01ACAB; stroke:none;" d="M24 57L25 58L24 57M25 59L26 60L25 59M26 61L27 62L26 61z"/>
<path style="fill:#01ACAB; stroke:none;" d="M29 66L30 67L29 66M70 66L71 67L70 66z"/>
<path style="fill:#01ACAB; stroke:none;" d="M30 68L31 69L30 68z"/>
<path style="fill:#01ACAB; stroke:none;" d="M32 71L33 72L32 71z"/>
<path style="fill:#01ACAB; stroke:none;" d="M67 71L68 72L67 71z"/>
<path style="fill:#01ACAB; stroke:none;" d="M34 74L35 75L34 74M65 74L66 75L65 74M36 77L37 78L36 77z"/>
<path style="fill:#01ACAB; stroke:none;" d="M63 77L64 78L63 77z"/>
<path style="fill:#01ACAB; stroke:none;" d="M38 80L39 81L38 80M39 81L40 82L39 81M60 81L61 82L60 81z"/>
<path style="fill:#01ACAB; stroke:none;" d="M41 84L42 85L41 84z"/>
<path style="fill:#01ACAB; stroke:none;" d="M42 85L43 86L42 85z"/>
<path style="fill:#01ACAB; stroke:none;" d="M45 89L46 90L45 89z"/>
<path style="fill:#01ACAB; stroke:none;" d="M46 90L47 91L46 90z"/>
<path style="fill:#01ACAB; stroke:none;" d="M52 91L53 92L52 91M51 92L52 93L51 92z"/>
<path style="fill:#01ACAB; stroke:none;" d="M50 93L51 94L50 93z"/>
</svg>
