<svg
    xmlns="http://www.w3.org/2000/svg"
    viewBox="0 0 512 512"
    id="vector">
    <g
        id="group"
        transform="translate(0 512) scale(0.1 -0.1)">
        <path
            id="path"
            d="M 990 5098 C 937 5080 913 5064 859 5011 C 817 4969 787 4929 776 4900 C 767 4875 666 4416 552 3880 L 344 2905 L 252 2902 L 160 2899 L 160 3145 L 160 3391 L 135 3415 C 96 3455 39 3447 15 3399 C 3 3376 0 3316 0 3081 L 0 2791 L 24 2763 C 48 2735 49 2735 189 2732 L 330 2728 L 330 1771 C 330 700 326 761 402 675 C 424 650 464 618 491 605 L 539 580 L 542 314 L 545 48 L 573 24 L 601 0 L 1001 0 L 1402 0 L 1431 30 L 1461 60 L 1458 210 C 1455 344 1453 362 1435 379 C 1406 407 1358 410 1324 386 C 1308 374 1304 356 1300 268 L 1295 165 L 1003 162 L 710 160 L 710 365 L 710 570 L 2560 570 L 4410 570 L 4410 365 L 4410 160 L 4118 162 L 3825 165 L 3820 268 C 3816 356 3812 374 3796 386 C 3762 410 3714 407 3685 379 C 3667 362 3665 344 3662 210 L 3659 60 L 3689 30 L 3718 0 L 4119 0 L 4519 0 L 4547 24 L 4575 48 L 4578 314 L 4581 580 L 4629 605 C 4656 618 4696 650 4718 675 C 4794 761 4790 700 4790 1771 L 4790 2728 L 4931 2732 C 5071 2735 5072 2735 5096 2763 L 5120 2791 L 5120 3081 C 5120 3316 5117 3376 5105 3399 C 5081 3447 5024 3455 4985 3415 L 4960 3391 L 4960 3145 L 4960 2899 L 4868 2902 L 4776 2905 L 4568 3880 C 4454 4416 4353 4875 4343 4900 C 4333 4929 4303 4969 4261 5011 C 4205 5066 4184 5080 4127 5098 L 4060 5120 L 2557 5120 L 1055 5119 L 990 5098 Z M 4054 4951 C 4099 4940 4158 4896 4182 4853 C 4195 4832 4320 4288 4320 4255 C 4320 4252 3528 4250 2560 4250 C 1592 4250 800 4252 800 4255 C 800 4288 925 4832 938 4853 C 961 4894 1021 4941 1062 4950 C 1109 4961 4006 4962 4054 4951 Z M 4360 4075 C 4360 4073 4421 3786 4495 3439 L 4630 2806 L 4630 2213 L 4630 1620 L 4190 1620 L 3751 1620 L 3776 1688 C 3824 1816 3837 1838 3878 1864 C 3916 1888 3923 1889 4138 1892 C 4355 1895 4359 1895 4384 1919 C 4431 1963 4409 2040 4346 2056 C 4332 2059 4226 2060 4108 2058 C 3874 2054 3846 2048 3761 1981 C 3703 1935 3676 1887 3617 1729 C 3542 1529 3542 1527 3578 1490 L 3608 1460 L 4119 1460 L 4630 1460 L 4630 1153 C 4630 814 4628 800 4567 756 L 4539 735 L 2560 735 L 581 735 L 553 756 C 492 800 490 814 490 1153 L 490 1460 L 1001 1460 L 1512 1460 L 1542 1490 C 1578 1527 1578 1529 1503 1729 C 1444 1887 1417 1935 1359 1981 C 1274 2048 1246 2054 1012 2058 C 894 2060 788 2059 774 2056 C 711 2040 689 1963 736 1919 C 761 1895 765 1895 982 1892 C 1194 1889 1204 1888 1240 1865 C 1279 1840 1300 1804 1344 1688 L 1369 1620 L 930 1620 L 490 1620 L 490 2213 L 490 2806 L 625 3439 C 699 3786 760 4073 760 4075 C 760 4078 1570 4080 2560 4080 C 3550 4080 4360 4078 4360 4075 Z"
            fill="#01acab"
            stroke-width="1"/>
        <path
            id="path_1"
            d="M 713 2890 C 659 2868 647 2794 692 2754 C 711 2736 775 2735 2561 2735 C 4397 2735 4410 2735 4429 2755 C 4463 2789 4466 2832 4437 2866 L 4412 2895 L 2573 2897 C 1522 2898 726 2895 713 2890 Z"
            fill="#01acab"
            stroke-width="1"/>
        <path
            id="path_2"
            d="M 1760 1880 C 1725 1845 1728 1826 1796 1642 C 1827 1559 1860 1487 1872 1478 C 1891 1461 1939 1460 2560 1460 C 3181 1460 3229 1461 3248 1478 C 3267 1494 3376 1765 3380 1807 C 3387 1866 3359 1900 3305 1900 C 3258 1900 3239 1878 3205 1789 C 3190 1748 3169 1695 3160 1670 L 3142 1625 L 2560 1625 L 1978 1625 L 1960 1670 C 1951 1695 1930 1748 1915 1789 C 1900 1830 1879 1871 1869 1881 C 1843 1907 1786 1906 1760 1880 Z"
            fill="#01acab"
            stroke-width="1"/>
        <path
            id="path_3"
            d="M 686 1148 C 650 1115 647 1063 680 1030 C 699 1011 713 1010 1000 1010 L 1301 1010 L 1325 1035 C 1352 1061 1356 1086 1339 1123 C 1319 1167 1296 1170 995 1170 C 715 1170 711 1170 686 1148 Z"
            fill="#01acab"
            stroke-width="1"/>
        <path
            id="path_4"
            d="M 1657 1150 C 1644 1139 1629 1119 1626 1105 C 1619 1076 1641 1026 1665 1016 C 1687 1008 3433 1008 3455 1016 C 3479 1026 3501 1076 3494 1105 C 3491 1119 3476 1139 3463 1150 C 3438 1170 3420 1170 2560 1170 C 1700 1170 1682 1170 1657 1150 Z"
            fill="#01acab"
            stroke-width="1"/>
        <path
            id="path_5"
            d="M 3814 1158 C 3767 1136 3758 1072 3795 1035 L 3819 1010 L 4120 1010 C 4407 1010 4421 1011 4440 1030 C 4473 1063 4470 1115 4434 1148 C 4409 1170 4406 1170 4122 1169 C 3946 1169 3827 1165 3814 1158 Z"
            fill="#01acab"
            stroke-width="1"/>
    </g>
</svg>
